<svg width="219" height="156" viewBox="0 0 219 156" fill="none" xmlns="http://www.w3.org/2000/svg">
<path d="M53.5 128H51.5V154H77.5V128H53.5ZM53.5 128L3 77.5L52.5 28" stroke="#92B7AF" stroke-width="4"/>
<path d="M77 2V28H51.5V2H77Z" stroke="#92B7AF" stroke-width="4"/>
<path d="M79.2188 91.5625H96.0703V94H76.3125V59.875H79.2188V91.5625ZM99.4219 80.9453C99.4219 78.5078 99.8906 76.3125 100.828 74.3594C101.781 72.4062 103.117 70.8906 104.836 69.8125C106.57 68.7188 108.531 68.1719 110.719 68.1719C114.094 68.1719 116.828 69.3594 118.922 71.7344C121.016 74.0938 122.062 77.2266 122.062 81.1328V81.7188C122.062 84.1719 121.586 86.3828 120.633 88.3516C119.695 90.3047 118.367 91.8125 116.648 92.875C114.93 93.9375 112.969 94.4688 110.766 94.4688C107.406 94.4688 104.672 93.2891 102.562 90.9297C100.469 88.5547 99.4219 85.4141 99.4219 81.5078V80.9453ZM102.234 81.7188C102.234 84.75 103.016 87.2422 104.578 89.1953C106.156 91.1328 108.219 92.1016 110.766 92.1016C113.297 92.1016 115.344 91.1328 116.906 89.1953C118.484 87.2422 119.273 84.6719 119.273 81.4844V80.9453C119.273 79.0078 118.914 77.2344 118.195 75.625C117.477 74.0156 116.469 72.7734 115.172 71.8984C113.875 71.0078 112.391 70.5625 110.719 70.5625C108.219 70.5625 106.18 71.5469 104.602 73.5156C103.023 75.4688 102.234 78.0312 102.234 81.2031V81.7188ZM126.75 81.0859C126.75 77.1172 127.625 73.9766 129.375 71.6641C131.141 69.3359 133.531 68.1719 136.547 68.1719C140 68.1719 142.625 69.5469 144.422 72.2969L144.562 68.6406H147.188V93.4844C147.188 96.75 146.273 99.3359 144.445 101.242C142.617 103.148 140.141 104.102 137.016 104.102C135.25 104.102 133.562 103.703 131.953 102.906C130.359 102.125 129.102 101.078 128.18 99.7656L129.75 98.0781C131.734 100.516 134.094 101.734 136.828 101.734C139.172 101.734 141 101.039 142.312 99.6484C143.625 98.2734 144.305 96.3594 144.352 93.9062V90.7188C142.555 93.2188 139.938 94.4688 136.5 94.4688C133.562 94.4688 131.203 93.2969 129.422 90.9531C127.641 88.6094 126.75 85.4453 126.75 81.4609V81.0859ZM129.586 81.5781C129.586 84.8125 130.234 87.3672 131.531 89.2422C132.828 91.1016 134.656 92.0312 137.016 92.0312C140.469 92.0312 142.914 90.4844 144.352 87.3906V75.6016C143.695 73.9766 142.75 72.7422 141.516 71.8984C140.281 71.0391 138.797 70.6094 137.062 70.6094C134.703 70.6094 132.867 71.5391 131.555 73.3984C130.242 75.2422 129.586 77.9688 129.586 81.5781ZM153.375 81.0859C153.375 77.1172 154.25 73.9766 156 71.6641C157.766 69.3359 160.156 68.1719 163.172 68.1719C166.625 68.1719 169.25 69.5469 171.047 72.2969L171.188 68.6406H173.812V93.4844C173.812 96.75 172.898 99.3359 171.07 101.242C169.242 103.148 166.766 104.102 163.641 104.102C161.875 104.102 160.188 103.703 158.578 102.906C156.984 102.125 155.727 101.078 154.805 99.7656L156.375 98.0781C158.359 100.516 160.719 101.734 163.453 101.734C165.797 101.734 167.625 101.039 168.938 99.6484C170.25 98.2734 170.93 96.3594 170.977 93.9062V90.7188C169.18 93.2188 166.562 94.4688 163.125 94.4688C160.188 94.4688 157.828 93.2969 156.047 90.9531C154.266 88.6094 153.375 85.4453 153.375 81.4609V81.0859ZM156.211 81.5781C156.211 84.8125 156.859 87.3672 158.156 89.2422C159.453 91.1016 161.281 92.0312 163.641 92.0312C167.094 92.0312 169.539 90.4844 170.977 87.3906V75.6016C170.32 73.9766 169.375 72.7422 168.141 71.8984C166.906 71.0391 165.422 70.6094 163.688 70.6094C161.328 70.6094 159.492 71.5391 158.18 73.3984C156.867 75.2422 156.211 77.9688 156.211 81.5781ZM190.945 94.4688C188.789 94.4688 186.836 93.9375 185.086 92.875C183.352 91.8125 182 90.3359 181.031 88.4453C180.062 86.5391 179.578 84.4062 179.578 82.0469V81.0391C179.578 78.6016 180.047 76.4062 180.984 74.4531C181.938 72.5 183.258 70.9688 184.945 69.8594C186.633 68.7344 188.461 68.1719 190.43 68.1719C193.508 68.1719 195.945 69.2266 197.742 71.3359C199.555 73.4297 200.461 76.2969 200.461 79.9375V81.5078H182.367V82.0469C182.367 84.9219 183.188 87.3203 184.828 89.2422C186.484 91.1484 188.562 92.1016 191.062 92.1016C192.562 92.1016 193.883 91.8281 195.023 91.2812C196.18 90.7344 197.227 89.8594 198.164 88.6562L199.922 89.9922C197.859 92.9766 194.867 94.4688 190.945 94.4688ZM190.43 70.5625C188.32 70.5625 186.539 71.3359 185.086 72.8828C183.648 74.4297 182.773 76.5078 182.461 79.1172H197.672V78.8125C197.594 76.375 196.898 74.3906 195.586 72.8594C194.273 71.3281 192.555 70.5625 190.43 70.5625ZM217.641 71.0312C217.047 70.9219 216.414 70.8672 215.742 70.8672C213.992 70.8672 212.508 71.3594 211.289 72.3438C210.086 73.3125 209.227 74.7266 208.711 76.5859V94H205.922V68.6406H208.664L208.711 72.6719C210.195 69.6719 212.578 68.1719 215.859 68.1719C216.641 68.1719 217.258 68.2734 217.711 68.4766L217.641 71.0312Z" fill="white"/>
</svg>
